<svg xmlns="http://www.w3.org/2000/svg" id="b6fcd36b-d4d0-422e-bb57-73f91c0a9e98" data-name="Capa 1" viewBox="0 0 441.91 308"><title>camion</title><path d="M323.4,363.4a48,48,0,0,0,34.4,14.4h.2a48.82,48.82,0,0,0,48.8-48.6v-5.5h15.9a22.28,22.28,0,0,0,22.2-22.2V230.1a22,22,0,0,0-13.4-20.4L400,196l-26.4-51.4a37.63,37.63,0,0,0-33.8-20.7H292V108.3a38.2,38.2,0,0,0-38-38.4H40.8C20,70,3,87.2,3,108.4v193a22.2,22.2,0,0,0,21.8,22.5h8.7v3a6.18,6.18,0,0,1-.1,1.5v.5a48.87,48.87,0,0,0,48.6,49h.2A48.89,48.89,0,0,0,131,329.3v-.5a10.28,10.28,0,0,0-.1-1.7l-.3-3.3H309.2v5A48.88,48.88,0,0,0,323.4,363.4ZM82.3,364a34.8,34.8,0,1,1,34.8-34.8A34.83,34.83,0,0,1,82.3,364ZM278,310.1H127.3l-.8-1.7a48.55,48.55,0,0,0-43.9-28.2h-.5a48.24,48.24,0,0,0-43.9,28.1l-.8,1.8H25.2a8.18,8.18,0,0,1-8.2-8.5V247.1H278Zm0-77H17V108.5C17,95,27.7,84.1,40.8,84.1H254a24.41,24.41,0,0,1,17.1,7.2,23.87,23.87,0,0,1,6.9,17.1ZM358.1,364a34.8,34.8,0,1,1,34.8-34.8A34.83,34.83,0,0,1,358.1,364ZM292,138.1h47.9A23.79,23.79,0,0,1,361.2,151l22.3,43.1H292Zm0,172v-102H393.6l32.5,14.3a9,9,0,0,1,4.9,8.1v71a8.18,8.18,0,0,1-8.2,8.5H403.1l-.8-1.7a48.71,48.71,0,0,0-88.3-.1l-.8,1.7H292Z" transform="translate(-3 -69.9)" style="fill:#829ade"></path></svg>