<svg xmlns="http://www.w3.org/2000/svg" id="a6c9464a-637a-427e-bd5d-ee332e7696af" data-name="Layer 1" viewBox="0 0 512.1 384"><title>envelope</title><path d="M470.3,64H43.7A42.68,42.68,0,0,0,1,106.7V405.4A42.66,42.66,0,0,0,43.7,448H470.4a42.74,42.74,0,0,0,42.7-42.7V106.7A42.83,42.83,0,0,0,470.3,64ZM43.7,85.3H470.4a20.18,20.18,0,0,1,4.4.9c-37,33.8-159.5,145.9-202.3,184.5-3.4,3-8.8,6.6-15.5,6.6s-12.1-3.6-15.5-6.6C198.7,232.1,76.2,120,39.2,86.2A22.43,22.43,0,0,1,43.7,85.3Zm-21.4,320V106.7a19.36,19.36,0,0,1,1.2-5.9c28.3,25.9,113.7,104.1,169.2,154.5C137.4,302.7,52,383.7,23.5,410.9A20.69,20.69,0,0,1,22.3,405.3Zm448,21.4H43.7a19.53,19.53,0,0,1-4.8-1c29.4-28.1,115.5-109.6,169.7-156,7.1,6.4,13.5,12.3,18.6,16.9,8.8,7.9,19.1,12.1,29.8,12.1s21-4.2,29.8-12.1c5.1-4.6,11.6-10.4,18.6-16.9,54.3,46.4,140.3,127.9,169.7,156A18.61,18.61,0,0,1,470.3,426.7Zm21.4-21.4a21.39,21.39,0,0,1-1.1,5.6c-28.5-27.2-114-108.2-169.2-155.7,55.4-50.4,140.9-128.6,169.2-154.5a19.36,19.36,0,0,1,1.2,5.9V405.3Z" transform="translate(-1 -64)" style="fill:#FFFFFF"></path></svg>