<svg xmlns="http://www.w3.org/2000/svg" xmlns:xlink="http://www.w3.org/1999/xlink" width="512px" height="512px" viewBox="0 0 512 512"><title>money-back</title><desc>Created with Sketch.</desc><g id="Page-1" stroke="none" stroke-width="1" fill="none" fill-rule="evenodd"><g id="money-back" fill="#839ADE"><path d="M504.901,297.474 C497.727,287.45 485.775,280.714 473.712,279.894 C463.865,279.231 454.942,282.556 448.594,289.276 C447.201,290.75 445.698,292.369 444.108,294.103 C437.085,287.669 427.882,283.529 418.604,282.899 C408.753,282.239 399.833,285.562 393.486,292.281 C379.669,306.907 355.203,335.479 335.989,358.225 C333.483,356.743 330.802,355.521 327.966,354.604 C318.782,350.649 192.179,296.58 136.061,296.58 C45.41,296.58 3.764,345.305 2.036,347.378 C-0.615,350.56 -0.185,355.279 2.988,357.939 C6.162,360.6 10.898,360.183 13.568,357.017 C13.664,356.904 23.393,345.512 43.265,334.287 C61.581,323.943 92.549,311.609 136.06,311.609 C189.974,311.609 321.033,367.981 322.351,368.55 C324.76,369.589 327.245,370.384 329.445,371.852 C331.522,373.238 333.381,374.949 334.939,376.9 C337.965,380.691 339.86,385.381 340.258,390.219 C341.095,400.355 335.406,410.148 326.223,414.477 C320.432,417.207 314.31,417.289 308.226,415.622 L226.23,393.039 C222.282,391.951 218.076,394.342 216.989,398.288 C215.902,402.236 218.291,406.441 222.238,407.528 L304.12,430.08 C314.069,433.149 324.941,432.145 334.159,427.311 C343.522,422.402 350.413,414.139 353.561,404.048 C354.589,400.756 355.169,397.397 355.326,394.04 L377.318,391.724 C379.264,391.519 381.054,390.563 382.307,389.059 C382.849,388.408 436.774,323.671 459.52,299.595 C468.974,289.583 485.854,296.68 492.681,306.218 C503.179,320.885 490.133,336.896 485.885,341.455 C465.009,363.853 426.728,410 419.847,418.318 L264.044,496.219 L183.883,462.467 C180.109,460.878 175.63,462.701 174.041,466.477 C172.452,470.251 174.276,474.729 178.05,476.318 L261.398,511.411 C263.402,512.256 265.731,512.179 267.675,511.207 L427.99,431.049 C428.928,430.58 429.757,429.92 430.425,429.11 C430.865,428.577 474.684,375.517 496.881,351.7 C513.219,334.173 516.295,313.391 504.901,297.474 Z M372.713,377.099 L353.132,379.161 C351.744,375.231 349.742,371.538 347.218,368.223 C363.585,348.849 390.181,317.667 404.41,302.605 C408.521,298.252 413.841,297.636 417.583,297.897 C423.474,298.298 429.515,301.077 434.058,305.28 C411.512,330.732 380.817,367.392 372.713,377.099 Z" id="Shape" fill-rule="nonzero"></path><path d="M146.989,446.938 L114.928,433.438 C114.005,433.049 113.013,432.849 112.011,432.849 L7.806,432.849 C3.656,432.849 0.291,436.213 0.291,440.364 C0.291,444.515 3.656,447.879 7.806,447.879 L110.493,447.879 L141.155,460.789 C145.189,462.488 149.917,460.28 151.238,456.122 C152.398,452.472 150.515,448.422 146.989,446.938 Z" id="Path"></path><path d="M399.517,250.567 L367.518,255.139 C393.539,227.26 408.094,190.737 408.094,151.798 C408.094,68.097 339.997,0 256.296,0 C172.594,0 104.498,68.097 104.498,151.798 C104.498,185.383 115.244,217.21 135.574,243.836 C155.25,269.606 183.151,288.722 214.139,297.663 C218.238,298.844 222.59,296.266 223.546,292.118 C224.431,288.283 222.081,284.313 218.305,283.222 C160.146,266.442 119.527,212.397 119.527,151.797 C119.527,76.382 180.882,15.028 256.296,15.028 C331.711,15.028 393.065,76.382 393.065,151.797 C393.065,189.078 378.265,223.908 351.984,249.542 L351.984,209.911 C351.984,205.76 348.62,202.396 344.469,202.396 C340.318,202.396 336.954,205.76 336.954,209.911 L336.954,266.021 C336.954,270.514 341.08,274.1 345.532,273.461 L401.642,265.445 C405.696,264.866 408.599,260.997 408.019,256.943 C407.44,252.893 403.566,249.994 399.517,250.567 Z" id="Path"></path><path d="M256.296,144.282 L248.28,144.282 C239.164,144.282 231.748,136.865 231.748,127.75 C231.748,118.634 239.165,111.217 248.28,111.217 L280.343,111.217 C284.494,111.217 287.858,107.853 287.858,103.702 C287.858,99.551 284.494,96.187 280.343,96.187 L263.81,96.187 L263.81,87.67 C263.81,83.519 260.446,80.155 256.295,80.155 C252.145,80.155 248.78,83.519 248.78,87.67 L248.78,96.187 L248.279,96.187 C230.876,96.187 216.717,110.346 216.717,127.749 C216.717,145.152 230.876,159.311 248.279,159.311 L256.295,159.311 C265.411,159.311 272.828,166.728 272.828,175.843 C272.828,184.958 265.411,192.375 256.295,192.375 L224.232,192.375 C220.082,192.375 216.717,195.739 216.717,199.89 C216.717,204.041 220.082,207.405 224.232,207.405 L248.78,207.405 L248.78,215.922 C248.78,220.073 252.145,223.437 256.295,223.437 C260.446,223.437 263.81,220.073 263.81,215.922 L263.81,206.495 C277.596,203.114 287.857,190.658 287.857,175.844 C287.858,158.441 273.699,144.282 256.296,144.282 Z" id="Path"></path></g></g></svg>