<svg xmlns="http://www.w3.org/2000/svg" xmlns:xlink="http://www.w3.org/1999/xlink" width="512px" height="512px" viewBox="0 0 512 512"><title>service-client</title><desc>Created with Sketch.</desc><g id="Page-1" stroke="none" stroke-width="1" fill="none" fill-rule="evenodd"><g id="service-client" fill="#839ADE"><path d="M256,0 C114.61,0 0,114.61 0,256 C0,397.39 114.61,512 256,512 C397.39,512 512,397.39 512,256 C512,114.61 397.39,0 256,0 Z M256,480 C132.29,480 32,379.71 32,256 C32,132.29 132.29,32 256,32 C379.71,32 480,132.29 480,256 C480,379.71 379.71,480 256,480 Z" id="Shape" fill-rule="nonzero"></path><circle id="Oval" cx="176" cy="176" r="32"></circle><circle id="Oval" cx="336" cy="176" r="32"></circle><path d="M368,256 C368,317.855892 317.855892,368 256,368 C194.144108,368 144,317.855892 144,256 L112,256 C112,335.529004 176.470996,400 256,400 C335.529004,400 400,335.529004 400,256 L368,256 Z" id="Path"></path></g></g></svg>